<svg width="231" height="104" viewBox="0 0 231 104" fill="none" xmlns="http://www.w3.org/2000/svg">
<path d="M39.0105 88.9179C39.5885 90.2471 39.5018 91.4608 38.7505 92.5589C37.8836 93.7725 36.7855 94.3794 35.4562 94.3794H32.8555C32.1042 94.3794 31.3529 94.1482 30.6016 93.6859C29.9081 93.2235 29.4168 92.6456 29.1279 91.952L20.979 72.4468C20.69 71.7533 20.1699 71.4065 19.4186 71.4065H11.3564C10.6051 71.4065 10.2294 71.7821 10.2294 72.5335V90.3916C10.2294 91.4897 9.82488 92.4433 9.01577 93.2524C8.26446 94.0037 7.33976 94.3794 6.24169 94.3794H3.81436C2.71629 94.3794 1.7916 94.0037 1.04028 93.2524C0.34676 92.4433 0 91.4897 0 90.3916V39.7646C0 38.6087 0.34676 37.6551 1.04028 36.9038C1.7916 36.1525 2.71629 35.7769 3.81436 35.7769H27.3074C29.3879 35.7769 31.2951 36.297 33.0289 37.3373C34.7627 38.3776 36.1498 39.7646 37.1901 41.4984C38.2303 43.2322 38.7505 45.1683 38.7505 47.3066V59.9634C38.7505 62.2173 38.1436 64.269 36.93 66.1184C35.7741 67.91 34.2426 69.297 32.3354 70.2795C32.1042 70.3373 31.9309 70.5396 31.8153 70.8864C31.6997 71.1753 31.7286 71.4643 31.902 71.7533L39.0105 88.9179ZM28.4344 59.9634V47.3066C28.4344 46.4975 28.0587 46.093 27.3074 46.093H11.3564C10.6051 46.093 10.2294 46.4686 10.2294 47.22V59.9634C10.2294 60.7147 10.6051 61.0904 11.3564 61.0904H27.3074C28.0587 61.0904 28.4344 60.7147 28.4344 59.9634Z" fill="#E2CB83"/>
<path d="M77.8531 68.6324C77.8531 70.3662 77.4197 71.9844 76.5528 73.4871C75.6859 74.9319 74.53 76.1167 73.0852 77.0414C71.6403 77.9083 70.0221 78.3417 68.2305 78.3417H58.0011C57.7121 78.3417 57.4232 78.4573 57.1342 78.6885C56.903 78.8618 56.7874 79.093 56.7874 79.382V83.023C56.7874 83.3119 56.903 83.572 57.1342 83.8032C57.4232 84.0344 57.7121 84.1499 58.0011 84.1499H68.2305C69.3286 84.1499 70.2533 84.5256 71.0046 85.2769C71.8137 86.0282 72.2183 86.9818 72.2183 88.1377V90.3916C72.2183 91.4897 71.8137 92.4433 71.0046 93.2524C70.2533 94.0037 69.3286 94.3794 68.2305 94.3794H56.1806C53.5221 94.3794 51.2393 93.4547 49.3321 91.6053C47.4249 89.6981 46.4713 87.3864 46.4713 84.6701V59.1832C46.4713 57.3916 46.9048 55.7734 47.7717 54.3285C48.6964 52.8837 49.8811 51.7278 51.326 50.8609C52.7708 49.9362 54.389 49.4739 56.1806 49.4739H68.2305C70.0221 49.4739 71.6403 49.9362 73.0852 50.8609C74.53 51.7278 75.6859 52.8837 76.5528 54.3285C77.4197 55.7734 77.8531 57.3916 77.8531 59.1832V68.6324ZM67.6237 66.8986V61.0037C67.6237 60.6569 67.4792 60.368 67.1903 60.1368C66.9591 59.9056 66.699 59.79 66.41 59.79H58.0011C57.7121 59.79 57.4232 59.9056 57.1342 60.1368C56.903 60.368 56.7874 60.6569 56.7874 61.0037V66.8986C56.7874 67.1298 56.903 67.361 57.1342 67.5921C57.4232 67.8233 57.7121 67.9389 58.0011 67.9389H66.41C66.699 67.9389 66.9591 67.8233 67.1903 67.5921C67.4792 67.361 67.6237 67.1298 67.6237 66.8986Z" fill="#E2CB83"/>
<path d="M116.288 90.3916C116.288 91.4897 115.912 92.4433 115.161 93.2524C114.41 94.0037 113.485 94.3794 112.387 94.3794H109.96C108.862 94.3794 107.937 94.0037 107.186 93.2524C106.434 92.4433 106.059 91.4897 106.059 90.3916V61.0037C106.059 60.6569 105.914 60.368 105.625 60.1368C105.394 59.9056 105.134 59.79 104.845 59.79H96.436C96.147 59.79 95.858 59.9056 95.5691 60.1368C95.3379 60.368 95.2223 60.6569 95.2223 61.0037V90.3916C95.2223 91.4897 94.8466 92.4433 94.0953 93.2524C93.344 94.0037 92.4193 94.3794 91.3213 94.3794H88.8939C87.7958 94.3794 86.8423 94.0037 86.0331 93.2524C85.2818 92.4433 84.9062 91.4897 84.9062 90.3916V59.1832C84.9062 57.3916 85.3396 55.7734 86.2065 54.3285C87.1312 52.8259 88.316 51.6411 89.7608 50.7742C91.2057 49.9073 92.8239 49.4739 94.6155 49.4739H106.665C108.457 49.4739 110.075 49.9073 111.52 50.7742C112.965 51.6411 114.121 52.8259 114.988 54.3285C115.855 55.7734 116.288 57.3916 116.288 59.1832V90.3916Z" fill="#E2CB83"/>
<path d="M158.534 42.1052C158.534 43.2033 158.158 44.1569 157.407 44.966C156.656 45.7173 155.702 46.093 154.546 46.093H145.444C144.692 46.093 144.317 46.4686 144.317 47.22V90.3916C144.317 91.4897 143.912 92.4433 143.103 93.2524C142.352 94.0037 141.427 94.3794 140.329 94.3794H138.075C136.977 94.3794 136.023 94.0037 135.214 93.2524C134.463 92.4433 134.087 91.4897 134.087 90.3916V47.22C134.087 46.4686 133.712 46.093 132.96 46.093H123.771C122.673 46.093 121.719 45.7173 120.91 44.966C120.159 44.1569 119.783 43.2033 119.783 42.1052V39.7646C119.783 38.6087 120.159 37.6551 120.91 36.9038C121.719 36.1525 122.673 35.7769 123.771 35.7769H154.546C155.702 35.7769 156.656 36.1525 157.407 36.9038C158.158 37.6551 158.534 38.6087 158.534 39.7646V42.1052Z" fill="#E2CB83"/>
<path d="M192.565 84.6701C192.565 87.3864 191.612 89.6981 189.704 91.6053C187.855 93.4547 185.601 94.3794 182.943 94.3794H170.893C168.234 94.3794 165.951 93.4547 164.044 91.6053C162.137 89.6981 161.183 87.3864 161.183 84.6701V59.1832C161.183 57.3916 161.617 55.7734 162.484 54.3285C163.408 52.8259 164.593 51.6411 166.038 50.7742C167.483 49.9073 169.101 49.4739 170.893 49.4739H182.943C184.734 49.4739 186.352 49.9073 187.797 50.7742C189.242 51.6411 190.398 52.8259 191.265 54.3285C192.132 55.7734 192.565 57.3916 192.565 59.1832V84.6701ZM182.336 83.023V61.0037C182.336 60.6569 182.191 60.368 181.902 60.1368C181.671 59.9056 181.411 59.79 181.122 59.79H172.713C172.424 59.79 172.135 59.9056 171.846 60.1368C171.615 60.368 171.499 60.6569 171.499 61.0037V83.023C171.499 83.3119 171.615 83.572 171.846 83.8032C172.135 84.0344 172.424 84.1499 172.713 84.1499H181.122C181.411 84.1499 181.671 84.0344 181.902 83.8032C182.191 83.572 182.336 83.3119 182.336 83.023Z" fill="#E2CB83"/>
<path d="M231 90.3916C231 91.4897 230.624 92.4433 229.873 93.2524C229.122 94.0037 228.197 94.3794 227.099 94.3794H224.672C223.574 94.3794 222.649 94.0037 221.898 93.2524C221.146 92.4433 220.771 91.4897 220.771 90.3916V61.0037C220.771 60.6569 220.626 60.368 220.337 60.1368C220.106 59.9056 219.846 59.79 219.557 59.79H211.148C210.859 59.79 210.57 59.9056 210.281 60.1368C210.05 60.368 209.934 60.6569 209.934 61.0037V90.3916C209.934 91.4897 209.559 92.4433 208.807 93.2524C208.056 94.0037 207.131 94.3794 206.033 94.3794H203.606C202.508 94.3794 201.554 94.0037 200.745 93.2524C199.994 92.4433 199.618 91.4897 199.618 90.3916V59.1832C199.618 57.3916 200.052 55.7734 200.919 54.3285C201.843 52.8259 203.028 51.6411 204.473 50.7742C205.918 49.9073 207.536 49.4739 209.327 49.4739H221.377C223.169 49.4739 224.787 49.9073 226.232 50.7742C227.677 51.6411 228.833 52.8259 229.7 54.3285C230.567 55.7734 231 57.3916 231 59.1832V90.3916Z" fill="#E2CB83"/>
<path d="M90.9388 27.2684L136.911 100.259L182.883 27.2684H90.9388Z" fill="#253156" stroke="#E2CB83" stroke-width="3"/>
<path d="M136.911 26.1104L137 98" stroke="#E2CB83" stroke-width="5"/>
<path d="M180.5 29L93 29" stroke="#E2CB83" stroke-width="5"/>
</svg>
